<svg width="512.003" height="512.003" xmlns="http://www.w3.org/2000/svg">

 <g>
  <title>background</title>
  <rect fill="none" id="canvas_background" height="402" width="582" y="-1" x="-1"/>
 </g>
 <g>
  <title>Layer 1</title>
  <g id="svg_1">
   <g id="svg_2">
    <path fill="#98d2e8" id="svg_3" d="m492.638,415.098c-35.448,-29.658 -139.707,-117.145 -187.508,-159.807c25.893,-23.74 62.124,-59.049 97.362,-93.399c40.344,-39.32 78.458,-76.473 95.74,-91.067c8.75,-7.401 13.771,-18.263 13.771,-29.793c0,-14.448 -7.51,-27.26 -20.094,-34.265c-12.521,-6.963 -27.26,-6.619 -39.438,0.949c-39.313,24.403 -196.469,137.351 -196.469,161.702c0,7.185 -0.293,15.633 -2.85,25.22c-11.75,-20.167 -18.483,-38.642 -18.483,-46.569c0,-15.188 -51.573,-64.662 -153.292,-147.066c-4.218,-3.42 -11.301,-2.19 -15.166,1.667c-4.167,4.17 -4.167,10.925 0,15.094l101.333,101.408c4.156,4.159 4.156,10.935 0,15.094c-4.042,4.024 -11.042,4.024 -15.083,0l-101.333,-101.407c-4.167,-4.17 -10.917,-4.17 -15.083,0l-1.833,1.835c-4.167,4.17 -4.167,10.925 0,15.094l101.333,101.408c4.156,4.159 4.156,10.935 0,15.094c-4.042,4.024 -11.042,4.024 -15.083,0l-101.334,-101.407c-4.146,-4.149 -11.813,-3.242 -16,0.917c-3.865,3.857 -4.188,10.018 -0.75,14.26c82.344,101.793 131.781,153.404 146.958,153.404c9.056,0 31.823,8.767 55.227,23.869c-47.297,42.072 -143.693,123.038 -185.175,157.744c-12.323,10.31 -19.385,25.477 -19.385,41.614c0,29.949 24.344,54.311 54.271,54.311c16.115,0 31.281,-7.078 41.583,-19.42c35.645,-42.645 119.006,-142.038 160.151,-188.132c42.456,47.588 130.417,152.568 160.172,188.173c10.292,12.322 25.448,19.379 41.552,19.379c29.927,0 54.271,-24.362 54.271,-54.311c0,-16.137 -7.062,-31.294 -19.365,-41.593z"/>
   </g>
  </g>
  <g id="svg_4"/>
  <g id="svg_5"/>
  <g id="svg_6"/>
  <g id="svg_7"/>
  <g id="svg_8"/>
  <g id="svg_9"/>
  <g id="svg_10"/>
  <g id="svg_11"/>
  <g id="svg_12"/>
  <g id="svg_13"/>
  <g id="svg_14"/>
  <g id="svg_15"/>
  <g id="svg_16"/>
  <g id="svg_17"/>
  <g id="svg_18"/>
 </g>
</svg>